<svg width="1486" height="272" viewBox="0 0 1486 272" fill="none" xmlns="http://www.w3.org/2000/svg">
<path d="M143 0L176.677 103.647H285.658L197.491 167.705L231.168 271.353L143 207.295L54.8322 271.353L88.5093 167.705L0.341522 103.647H109.323L143 0Z" fill="#FFCE53"/>
<path d="M443 0L476.677 103.647H585.658L497.491 167.705L531.168 271.353L443 207.295L354.832 271.353L388.509 167.705L300.342 103.647H409.323L443 0Z" fill="#FFCE53"/>
<path d="M1343 0L1376.68 103.647H1485.66L1397.49 167.705L1431.17 271.353L1343 207.295L1254.83 271.353L1288.51 167.705L1200.34 103.647H1309.32L1343 0Z" fill="#FFCE53"/>
<path d="M1043 0L1076.68 103.647H1185.66L1097.49 167.705L1131.17 271.353L1043 207.295L954.832 271.353L988.509 167.705L900.342 103.647H1009.32L1043 0Z" fill="#FFCE53"/>
<path d="M743 0L776.677 103.647H885.658L797.491 167.705L831.168 271.353L743 207.295L654.832 271.353L688.509 167.705L600.342 103.647H709.323L743 0Z" fill="#FFCE53"/>
</svg>
