<svg width="155" height="95" viewBox="0 0 155 95" fill="none" xmlns="http://www.w3.org/2000/svg">
<path d="M95 47.5C95 73.7335 73.7335 95 47.5 95C21.2665 95 0 73.7335 0 47.5C0 21.2665 21.2665 0 47.5 0C73.7335 0 95 21.2665 95 47.5ZM10.2978 47.5C10.2978 68.0462 26.9538 84.7022 47.5 84.7022C68.0462 84.7022 84.7022 68.0462 84.7022 47.5C84.7022 26.9538 68.0462 10.2978 47.5 10.2978C26.9538 10.2978 10.2978 26.9538 10.2978 47.5Z" fill="#FFCE53"/>
<path d="M155 47.5C155 73.7335 133.734 95 107.5 95C81.2665 95 60 73.7335 60 47.5C60 21.2665 81.2665 0 107.5 0C133.734 0 155 21.2665 155 47.5ZM70.2978 47.5C70.2978 68.0462 86.9538 84.7022 107.5 84.7022C128.046 84.7022 144.702 68.0462 144.702 47.5C144.702 26.9538 128.046 10.2978 107.5 10.2978C86.9538 10.2978 70.2978 26.9538 70.2978 47.5Z" fill="#FFCE53"/>
</svg>
